<svg width="15" height="18" viewBox="0 0 15 18" fill="none" xmlns="http://www.w3.org/2000/svg">
<path d="M1 17C1 13.5636 3.78579 10.7778 7.22222 10.7778C10.6587 10.7778 13.4444 13.5636 13.4444 17M10.7778 4.55556C10.7778 6.51924 9.18587 8.11111 7.22222 8.11111C5.25854 8.11111 3.66667 6.51924 3.66667 4.55556C3.66667 2.59188 5.25854 1 7.22222 1C9.18587 1 10.7778 2.59188 10.7778 4.55556Z" stroke="white" stroke-width="1.77778" stroke-linecap="round" stroke-linejoin="round"/>
<path d="M1 17C1 13.5636 3.78579 10.7778 7.22222 10.7778C10.6587 10.7778 13.4444 13.5636 13.4444 17M10.7778 4.55556C10.7778 6.51924 9.18587 8.11111 7.22222 8.11111C5.25854 8.11111 3.66667 6.51924 3.66667 4.55556C3.66667 2.59188 5.25854 1 7.22222 1C9.18587 1 10.7778 2.59188 10.7778 4.55556Z" stroke="black" stroke-opacity="0.2" stroke-width="1.77778" stroke-linecap="round" stroke-linejoin="round"/>
</svg>
